# xmcd
#
# Track frame offsets:
#	150
#	18347
#	28815
#	39575
#	51765
#	65407
#	76627
#	88192
#	100842
#	111647
#	127017
#
# Disc length: 1921 seconds
#
# Revision: 1
# Processed by: cddbd v1.4b41PL2 Copyright (c) Steve Scherf et al.
# Submitted via: audiograbber 1.80
#
DISCID=8f077f0b
DTITLE=Ill-Eagles - Livin' In the House of Hope [CD1]
DYEAR=1900
DGENRE=
TTITLE0=Living in the House of Hope
TTITLE1=Hello Hampton Roads
TTITLE2=The Toll Road
TTITLE3=Billy Clinton's Tax Slave
TTITLE4=You Can Wear Plaid
TTITLE5=Ross Perot
TTITLE6=Virginia Girls
TTITLE7=Try Not to Think About Elvis
TTITLE8=Don't Go Near the Water
TTITLE9=That Summer '93
TTITLE10=She Thinks She'll Keep Him
EXTD=
EXTT0=
EXTT1=
EXTT2=
EXTT3=
EXTT4=
EXTT5=
EXTT6=
EXTT7=
EXTT8=
EXTT9=
EXTT10=
PLAYORDER=
